<?xml version="1.0" encoding="UTF-8"?>
<svg width="145px" height="44px" viewBox="0 0 145 44" version="1.1" xmlns="http://www.w3.org/2000/svg" xmlns:xlink="http://www.w3.org/1999/xlink">
    <title>Group 39</title>
    <defs>
        <polygon id="path-1" points="0.9305 0.117914666 10 0.117914666 10 12.3924101 0.9305 12.3924101"></polygon>
        <polygon id="path-3" points="0 43.1226 145 43.1226 145 -0.0004 0 -0.0004"></polygon>
    </defs>
    <g id="Symbols" stroke="none" stroke-width="1" fill="none" fill-rule="evenodd">
        <g id="HamburgerNav" transform="translate(-150.000000, -26.000000)">
            <g id="Group">
                <g id="Group-39" transform="translate(150.000000, 26.000000)">
                    <path d="M7.6256,28.122 L7.6256,43.122 C3.0246,41.581 0.0006,38.971 0.0006,36.013 C0.8596,32.721 3.6876,29.895 7.6256,28.122" id="Fill-1" fill="#0099D9"></path>
                    <path d="M34.5704,36.0131 C34.5704,38.9711 31.5444,41.5811 26.9434,43.1221 L26.9434,28.1221 C30.8814,29.8951 33.7114,32.7211 34.5704,36.0131" id="Fill-3" fill="#0099D9"></path>
                    <path d="M7.6256,-7.10542736e-15 L7.6256,14.999 C3.6876,13.226 0.8596,10.401 0.0006,7.109 C0.0006,4.15 3.0246,1.541 7.6256,-7.10542736e-15" id="Fill-5" fill="#0099D9"></path>
                    <path d="M34.5704,7.1093 C33.7114,10.4013 30.8814,13.2263 26.9434,14.9993 L26.9434,0.0003 C31.5444,1.5413 34.5704,4.1503 34.5704,7.1093" id="Fill-7" fill="#0099D9"></path>
                    <path d="M34.5704,7.1093 L34.5704,36.0133 C33.7114,32.7213 30.8814,29.8953 26.9434,28.1223 C24.1724,26.8753 20.8534,26.1493 17.2854,26.1493 C13.7164,26.1493 10.3964,26.8753 7.6254,28.1223 C3.6874,29.8953 0.8594,32.7213 0.0004,36.0133 L0.0004,7.1093 C0.8594,10.4013 3.6874,13.2263 7.6254,14.9993 C10.3964,16.2463 13.7164,16.9723 17.2854,16.9723 C20.8534,16.9723 24.1724,16.2463 26.9434,14.9993 C30.8814,13.2263 33.7114,10.4013 34.5704,7.1093" id="Fill-9" fill="#00203E"></path>
                    <path d="M59.2936,15.2295 C59.2936,15.4795 59.2776,15.7295 59.2966,15.9785 C59.3706,16.9445 59.5426,17.8855 60.0766,18.7215 C61.1196,20.3535 63.3616,20.3305 64.3616,18.6705 C64.5386,18.3765 64.6826,18.0545 64.7836,17.7275 C65.1746,16.4665 65.2156,15.1765 65.0396,13.8765 C64.9316,13.0845 64.6856,12.3415 64.1736,11.7095 C63.1446,10.4385 61.2436,10.4325 60.2316,11.7165 C59.9806,12.0365 59.7886,12.4155 59.6356,12.7935 C59.3206,13.5715 59.2666,14.3985 59.2936,15.2295 M62.2046,21.4905 C61.3576,21.4605 60.5256,21.3735 59.7156,21.1345 C58.0386,20.6415 56.9106,19.5725 56.3856,17.9055 C55.9196,16.4275 55.8396,14.9165 56.1876,13.4095 C56.6466,11.4225 57.8996,10.1325 59.8626,9.5715 C61.4546,9.1175 63.0656,9.1255 64.6526,9.6105 C66.6016,10.2065 67.8046,11.5245 68.2336,13.5005 C68.5446,14.9315 68.4776,16.3715 68.0636,17.7765 C67.4506,19.8495 65.9916,20.9685 63.8976,21.3145 C63.3386,21.4075 62.7686,21.4335 62.2046,21.4905" id="Fill-11" fill="#00203E"></path>
                    <polygon id="Fill-13" fill="#00203E" points="50.6212 16.0791 46.1152 16.0791 46.1152 21.1951 43.1792 21.1951 43.1792 9.4601 46.1032 9.4601 46.1032 14.2871 50.6062 14.2871 50.6062 9.4641 53.5312 9.4641 53.5312 21.1871 50.6212 21.1871"></polygon>
                    <polygon id="Fill-15" fill="#00203E" points="100.757 16.0776 96.254 16.0776 96.254 21.1906 93.306 21.1906 93.306 9.4666 96.241 9.4666 96.241 14.2906 100.742 14.2906 100.742 9.4646 103.664 9.4646 103.664 21.1986 100.757 21.1986"></polygon>
                    <path d="M90.2741,18.3994 C90.5661,19.0684 90.8481,19.7154 91.1371,20.3784 C90.4351,20.7734 89.7041,21.0344 88.9441,21.2174 C87.4271,21.5834 85.9041,21.5824 84.3931,21.1994 C82.6861,20.7674 81.5811,19.6984 81.1291,17.9954 C80.7211,16.4554 80.6691,14.8994 81.0661,13.3504 C81.6381,11.1164 83.1131,9.8144 85.3591,9.3964 C86.8591,9.1164 88.3581,9.2164 89.8171,9.6744 C90.2711,9.8164 90.6951,10.0484 91.1631,10.2534 C90.7911,10.8994 90.4541,11.4874 90.1041,12.0964 C89.9041,11.9464 89.7251,11.8064 89.5391,11.6744 C88.7751,11.1334 87.9231,10.8684 86.9871,10.9014 C85.8241,10.9424 85.0461,11.5684 84.5471,12.5704 C84.0641,13.5424 83.9571,14.5944 83.9971,15.6584 C84.0171,16.1834 84.0791,16.7144 84.1971,17.2264 C84.6351,19.1234 86.0341,19.9784 87.9441,19.5514 C88.7091,19.3804 89.3881,19.0264 90.0231,18.5794 C90.0991,18.5254 90.1741,18.4714 90.2741,18.3994" id="Fill-17" fill="#00203E"></path>
                    <polygon id="Fill-19" fill="#00203E" points="76.0289 21.1997 73.0359 21.1997 73.0359 11.2847 69.4499 11.2847 69.4499 9.4637 79.6389 9.4637 79.6389 11.2717 76.0289 11.2717"></polygon>
                    <path d="M109.5426,15.6543 L109.5426,21.2383 L106.6196,21.2383 L106.6196,9.4513 L109.5366,9.4513 L109.5366,14.4353 C109.7766,14.2013 109.9896,14.0083 110.1876,13.8003 C111.5116,12.4033 112.8296,11.0003 114.1586,9.6093 C114.2506,9.5113 114.4186,9.4383 114.5536,9.4363 C115.3916,9.4203 116.2296,9.4273 117.0686,9.4283 C117.1436,9.4283 117.2186,9.4383 117.3466,9.4463 C115.5476,11.1513 113.7846,12.8213 112.0016,14.5113 C113.9646,16.7633 115.9056,18.9893 117.8806,21.2553 L117.3216,21.2553 C116.3016,21.2553 115.2806,21.2473 114.2616,21.2613843 C114.0426,21.2643 113.9236,21.1873 113.7966,21.0243 C112.4576,19.3123 111.1096,17.6083 109.7636,15.9023 C109.7106,15.8353 109.6496,15.7743 109.5426,15.6543" id="Fill-21" fill="#00203E"></path>
                    <g id="Group-25" transform="translate(135.000000, 9.122600)">
                        <mask id="mask-2" fill="white">
                            <use xlink:href="#path-1"></use>
                        </mask>
                        <g id="Clip-24"></g>
                        <path d="M9.7975,1.0795 C9.4465,1.7095 9.1035,2.3265 8.7845,2.9015 C8.2875,2.6045 7.8175,2.2765 7.3065,2.0295 C6.5835,1.6815 5.8125,1.5535 5.0165,1.7775 C4.5085,1.9195 4.1105,2.1945 4.0495,2.7595 C3.9865,3.3395 4.1925,3.8425 4.7195,4.1075 C5.2075,4.3525 5.7395,4.5115 6.2605,4.6845 C7.0025,4.9325 7.7765,5.0905 8.4525,5.5145 C9.6785,6.2835 10.1095,7.4035 9.9775,8.8055 C9.8565,10.0855 9.3045,11.0855 8.1775,11.7395 C7.6255,12.0595 7.0185,12.2275 6.3905,12.3095 C4.9595,12.4965 3.5625,12.3885 2.2395,11.7655 C1.7985,11.5585 1.3795,11.3065 0.9305,11.0645 C1.3625,10.4075 1.7645,9.7985 2.1765,9.1725 C2.6995,9.6755 3.2645,10.0765 3.9185,10.3435 C4.6225,10.6315 5.3425,10.7565 6.0885,10.5245 C6.7085,10.3305 7.0855,9.9085 7.1425,9.2575 C7.1955,8.6505 7.0165,8.1035 6.4445,7.8125 C5.9885,7.5815 5.4855,7.4455 5.0045,7.2645 C4.3605,7.0235 3.6815,6.8465 3.0815,6.5245 C1.7545,5.8105 1.2535,4.6225 1.4035,3.1635 C1.5405,1.8445 2.3455,1.0195 3.5365,0.5435 C4.6275,0.1085 5.7675,0.0585 6.9255,0.1665 C7.8475,0.2525 8.7215,0.4875 9.5435,0.9135 C9.6045,0.9455 9.6635,0.9805 9.7225,1.0165 C9.7445,1.0295 9.7615,1.0485 9.7975,1.0795" id="Fill-23" fill="#00203E" mask="url(#mask-2)"></path>
                    </g>
                    <path d="M134.1696,10.187 C133.8066,10.838 133.4596,11.462 133.1086,12.092 C132.3836,11.413 131.5566,10.959 130.5866,10.839 C130.1776,10.789 129.7396,10.833 129.3346,10.921 C128.8646,11.023 128.4986,11.311 128.4226,11.83 C128.3466,12.354 128.5046,12.802 128.9306,13.136 C129.3556,13.469 129.8736,13.586 130.3736,13.748 C131.1006,13.982 131.8486,14.18 132.5396,14.497 C133.4696,14.924 134.1286,15.655 134.2926,16.693 C134.6056,18.679 133.9016,20.675 131.4636,21.286 C129.3486,21.815 127.3356,21.497 125.4936,20.286 C125.4376,20.249 125.3866,20.204 125.3176,20.151 C125.7256,19.531 126.1266,18.922 126.5206,18.324 C126.8706,18.585 127.1936,18.856 127.5456,19.082 C128.2566,19.538 129.0296,19.822 129.8916,19.753 C130.5726,19.7 131.1576,19.462 131.4186,18.76 C131.6856,18.04 131.4396,17.27 130.7656,16.912 C130.3306,16.681 129.8376,16.56 129.3706,16.388 C128.7496,16.159 128.0966,15.992 127.5146,15.688 C126.1626,14.984 125.6216,13.804 125.7656,12.316 C125.8966,10.97 126.7096,10.138 127.9216,9.659 C129.0056,9.231 130.1366,9.182 131.2856,9.289 C132.1976,9.373 133.0646,9.604 133.8796,10.023 C133.9706,10.07 134.0576,10.124 134.1696,10.187" id="Fill-26" fill="#00203E"></path>
                    <mask id="mask-4" fill="white">
                        <use xlink:href="#path-3"></use>
                    </mask>
                    <g id="Clip-29"></g>
                    <polygon id="Fill-28" fill="#00203E" mask="url(#mask-4)" points="120.06 21.2426 122.984 21.2426 122.984 9.4426 120.06 9.4426"></polygon>
                    <path d="M49.0719,28.771 C49.2009,30.401 49.0959,32.023 49.1379,33.652 L47.8749,33.652 L47.8749,27.121 C47.8979,27.116 47.9209,27.106 47.9429,27.106 C48.4349,27.105 48.9269,27.103 49.4199,27.108 C49.4669,27.109 49.5309,27.145 49.5569,27.185 C50.3219,28.368 51.0899,29.549 51.8379,30.742 C52.0299,31.048 52.1549,31.396 52.3099,31.726 C52.3279,31.762 52.3419,31.801 52.3679,31.836 C52.2359,30.266 52.3349,28.695 52.2949,27.115 L53.5629,27.115 L53.5629,33.661 L53.3919,33.661 C53.0119,33.661 52.6319,33.652 52.2519,33.665 C52.1019,33.67 52.0179,33.622 51.9389,33.497 C51.1679,32.277 50.3849,31.065 49.6179,29.843 C49.4339,29.548 49.2959,29.224 49.1369,28.912 C49.1139,28.866 49.0929,28.818 49.0719,28.771" id="Fill-30" fill="#00203E" mask="url(#mask-4)"></path>
                    <path d="M74.1852,29.8071 C74.5032,29.8061 74.7962,29.7941 75.0772,29.6751 C75.3312,29.5671 75.5012,29.3821 75.5802,29.1231 C75.6602,28.8581 75.6582,28.5851 75.5862,28.3171 C75.5342,28.1221 75.4002,27.9961 75.2132,27.9161 C74.9622,27.8101 74.7002,27.8141 74.4372,27.8271 C74.1322,27.8411 74.1892,27.8191 74.1862,28.0811 C74.1832,28.3521 74.1852,28.6241 74.1852,28.8961 L74.1852,29.8071 Z M72.5722,27.1061 C73.7022,27.0581 74.8172,26.9611 75.9282,27.1331 C76.1602,27.1691 76.3932,27.2491 76.6032,27.3541 C76.9982,27.5521 77.2032,27.8921 77.2402,28.3331 C77.2952,29.0001 77.1102,29.5551 76.5032,29.9111 C76.2302,30.0711 75.9302,30.1511 75.6182,30.1911 C75.5892,30.1951 75.5612,30.1991 75.5252,30.2041 C75.5342,30.2211 75.5382,30.2401 75.5462,30.2421 C76.2362,30.4171 76.7042,30.8811 77.0372,31.4691 C77.3082,31.9481 77.5102,32.4671 77.7362,32.9711 C77.8342,33.1911 77.9172,33.4191 78.0162,33.6651 C77.7842,33.6651 77.5672,33.6631 77.3502,33.6661 C76.9902,33.6701 76.6292,33.6731 76.2682,33.6841 C76.1702,33.6871 76.1192,33.6611 76.0882,33.5641 C75.9722,33.1941 75.8572,32.8231 75.7272,32.4571 C75.5542,31.9721 75.3642,31.4921 75.0162,31.0971 C74.8162,30.8701 74.5902,30.6821 74.2682,30.6601 C74.2492,30.6591 74.2302,30.6621 74.1912,30.6651 L74.1912,33.6511 L72.5722,33.6511 L72.5722,27.1061 Z" id="Fill-31" fill="#00203E" mask="url(#mask-4)"></path>
                    <path d="M63.7506,27.1132 L65.3766,27.1132 L65.3766,27.2912 C65.3766,28.5982 65.3766,29.9052 65.3776,31.2112 C65.3776,31.5822 65.4076,31.9472 65.5446,32.2982 C65.6866,32.6612 65.9466,32.8792 66.3356,32.9222 C66.5036,32.9402 66.6766,32.9402 66.8456,32.9222 C67.3126,32.8692 67.5816,32.5722 67.6846,32.1442 C67.7606,31.8262 67.8006,31.4932 67.8046,31.1662 C67.8176,29.8792 67.8096,28.5922 67.8096,27.3042 L67.8096,27.1172 L69.4206,27.1172 C69.4256,27.1472 69.4336,27.1752 69.4336,27.2032 C69.4306,28.6652 69.4316,30.1272 69.4216,31.5892 C69.4186,31.9892 69.3466,32.3822 69.1816,32.7512 C68.9536,33.2612 68.5476,33.5672 68.0196,33.7122 C67.3296,33.9022 66.6246,33.9122 65.9176,33.8462 C65.5266,33.8102 65.1446,33.7412 64.7906,33.5632 C64.1876,33.2592 63.9086,32.7362 63.8126,32.0982 C63.7716,31.8262 63.7486,31.5482 63.7466,31.2732 C63.7406,29.9372 63.7436,28.6012 63.7436,27.2662 C63.7436,27.2182 63.7476,27.1712 63.7506,27.1132" id="Fill-32" fill="#00203E" mask="url(#mask-4)"></path>
                    <path d="M61.0436,27.5361 C60.8536,27.8791 60.6626,28.2211 60.4826,28.5461 C60.2236,28.3871 59.9826,28.2141 59.7216,28.0841 C59.3406,27.8941 58.9336,27.8041 58.5036,27.8921 C58.4846,27.8961 58.4656,27.9001 58.4466,27.9041 C58.1146,27.9831 57.9056,28.1721 57.8696,28.4281 C57.8206,28.7711 57.9506,29.0641 58.2526,29.2261 C58.4316,29.3221 58.6266,29.3911 58.8186,29.4561 C59.2236,29.5921 59.6436,29.6911 60.0366,29.8551 C60.5726,30.0781 60.9876,30.4611 61.0996,31.0491 C61.3346,32.2751 60.8426,33.3841 59.4726,33.6911 C58.3556,33.9411 57.2956,33.7821 56.3176,33.1661 C56.2616,33.1301 56.2066,33.0921 56.1416,33.0491 C56.3716,32.6991 56.5956,32.3601 56.8236,32.0141 C57.1686,32.3491 57.5496,32.6061 58.0026,32.7401 C58.3786,32.8511 58.7596,32.8831 59.1286,32.7061 C59.4066,32.5741 59.5546,32.3481 59.5706,32.0381 C59.5866,31.7221 59.5066,31.4361 59.2136,31.2791 C58.9766,31.1521 58.7166,31.0611 58.4596,30.9801 C58.0276,30.8451 57.5866,30.7381 57.2026,30.4831 C56.5876,30.0751 56.3356,29.4921 56.3846,28.7731 C56.4326,28.0741 56.8026,27.5781 57.4396,27.3051 C57.7436,27.1751 58.0746,27.0771 58.4026,27.0371 C59.2476,26.9361 60.0746,27.0271 60.8496,27.4121 C60.8976,27.4361 60.9436,27.4631 60.9896,27.4901 C61.0056,27.5001 61.0186,27.5151 61.0436,27.5361" id="Fill-33" fill="#00203E" mask="url(#mask-4)"></path>
                    <polygon id="Fill-34" fill="#00203E" mask="url(#mask-4)" points="43.179 33.6486 44.798 33.6486 44.798 27.1136 43.179 27.1136"></polygon>
                    <path d="M89.132,27.1386 C89.649,27.1386 90.155,27.1356 90.661,27.1426 C90.71,27.1436 90.772,27.2006 90.803,27.2466 C91.36,28.1016 91.912,28.9606 92.468,29.8166 C92.835,30.3796 93.209,30.9376 93.454,31.5676 C93.49,31.6626 93.529,31.7566 93.568,31.8506 C93.569,31.8536 93.578,31.8526 93.594,31.8556 C93.452,30.2886 93.551,28.7226 93.513,27.1476 L94.765,27.1476 L94.765,33.6396 L94.416,33.6396 C94.071,33.6396 93.726,33.6436 93.381,33.6366 C93.321,33.6346 93.236,33.6026 93.207,33.5566 C92.429,32.3466 91.65,31.1376 90.887,29.9176 C90.663,29.5586 90.488,29.1696 90.285,28.7836 C90.422,30.3956 90.329,32.0066 90.364,33.6276 L89.132,33.6276 L89.132,27.1386 Z" id="Fill-35" fill="#00203E" mask="url(#mask-4)"></path>
                    <path d="M83.3073,28.457 C83.0653,29.216 82.7883,30.086 82.5123,30.954 L84.1053,30.954 C83.8263,30.078 83.5483,29.21 83.3073,28.457 M86.7793,33.639 C86.2363,33.639 85.7033,33.642 85.1703,33.633 C85.1263,33.632 85.0643,33.556 85.0453,33.503 C84.8503,32.969 84.6593,32.434 84.4753,31.896 C84.4393,31.792 84.3913,31.756 84.2803,31.757 C83.6333,31.763 82.9863,31.762 82.3393,31.757 C82.2333,31.757 82.1883,31.792 82.1563,31.89 C81.9783,32.429 81.7913,32.966 81.6133,33.505 C81.5793,33.608 81.5333,33.645 81.4213,33.643 C81.0223,33.635 80.6233,33.64 80.2053,33.64 C80.3073,33.357 80.4033,33.086 80.5043,32.818 C81.1363,31.131 81.7693,29.445 82.4023,27.759 C82.4663,27.588 82.5243,27.415 82.5983,27.249 C82.6203,27.199 82.6893,27.14 82.7403,27.137 C83.2293,27.112 83.7203,27.094 84.2113,27.0839863 C84.2613,27.083 84.3413,27.137 84.3593,27.184 C85.1613,29.305 85.9583,31.428 86.7563,33.551 C86.7653,33.575 86.7693,33.601 86.7793,33.639" id="Fill-36" fill="#00203E" mask="url(#mask-4)"></path>
                    <polygon id="Fill-37" fill="#00203E" mask="url(#mask-4)" points="107.3922 32.6328 110.1722 32.6328 110.1722 33.6308 105.7862 33.6308 105.7862 27.1498 110.0032 27.1498 110.0032 28.0938 107.3922 28.0938 107.3922 29.7978 109.7072 29.7978 109.7072 30.7518 107.3922 30.7518"></polygon>
                    <path d="M103.1066,27.5927 C102.9026,27.9467 102.7176,28.2677 102.5286,28.5967 C102.3986,28.5007 102.2806,28.4077 102.1576,28.3247 C101.6916,28.0137 101.1756,27.8717 100.6236,27.9527 C99.9626,28.0497 99.5676,28.4887 99.3596,29.0877 C99.0616,29.9487 99.0586,30.8267 99.3356,31.6957 C99.5536,32.3777 100.1136,32.8557 101.0326,32.7717 C101.5776,32.7207 102.0416,32.4927 102.4816,32.1927 C102.5256,32.1617 102.5676,32.1297 102.6226,32.0907 C102.7806,32.4557 102.9366,32.8137 103.0966,33.1827 C102.6346,33.4347 102.1556,33.6047 101.6516,33.6957 C100.9456,33.8217 100.2366,33.8197 99.5336,33.6717 C98.5006,33.4557 97.8186,32.8597 97.5616,31.8227 C97.3066,30.7937 97.2886,29.7667 97.7146,28.7777 C98.1676,27.7267 99.0266,27.2097 100.1386,27.0787 C100.9446,26.9837 101.7406,27.0367 102.5106,27.3117 C102.7106,27.3827 102.8976,27.4927 103.1066,27.5927" id="Fill-38" fill="#00203E" mask="url(#mask-4)"></path>
                </g>
            </g>
        </g>
    </g>
</svg>